<svg width="46" height="46" viewBox="0 0 46 46" fill="none" xmlns="http://www.w3.org/2000/svg">
<path d="M38.1668 36.273H21.085C20.2375 36.273 19.5406 35.5762 19.5406 34.7287C19.5406 33.8812 20.2375 33.1843 21.085 33.1843H38.1668C39.0143 33.1843 39.7112 33.8812 39.7112 34.7287C39.7112 35.595 39.0143 36.273 38.1668 36.273Z" fill="#24A19C"/>
<path d="M38.1668 24.4267H21.085C20.2375 24.4267 19.5406 23.7299 19.5406 22.8824C19.5406 22.0349 20.2375 21.3381 21.085 21.3381H38.1668C39.0143 21.3381 39.7112 22.0349 39.7112 22.8824C39.7112 23.7299 39.0143 24.4267 38.1668 24.4267Z" fill="#24A19C"/>
<path d="M38.1668 12.5619H21.085C20.2375 12.5619 19.5406 11.8651 19.5406 11.0176C19.5406 10.1701 20.2375 9.47324 21.085 9.47324H38.1668C39.0143 9.47324 39.7112 10.1701 39.7112 11.0176C39.7112 11.8651 39.0143 12.5619 38.1668 12.5619Z" fill="#24A19C"/>
<path d="M9.7473 15.1232C9.33297 15.1232 8.93747 14.9537 8.65497 14.6712L6.94114 12.9574C6.33847 12.3547 6.33847 11.3754 6.94114 10.7727C7.5438 10.17 8.52314 10.17 9.1258 10.7727L9.7473 11.3942L13.7776 7.36387C14.3803 6.7612 15.3596 6.7612 15.9623 7.36387C16.565 7.96653 16.565 8.94587 15.9623 9.54853L10.8396 14.6712C10.5383 14.9537 10.1616 15.1232 9.7473 15.1232Z" fill="#24A19C"/>
<path d="M9.7473 26.9882C9.3518 26.9882 8.9563 26.8375 8.65497 26.5362L6.94114 24.8224C6.33847 24.2197 6.33847 23.2404 6.94114 22.6377C7.5438 22.035 8.52314 22.035 9.1258 22.6377L9.7473 23.2592L13.7776 19.2289C14.3803 18.6262 15.3596 18.6262 15.9623 19.2289C16.565 19.8315 16.565 20.8109 15.9623 21.4135L10.8396 26.5362C10.5383 26.8375 10.1428 26.9882 9.7473 26.9882Z" fill="#24A19C"/>
<path d="M9.7473 38.2882C9.3518 38.2882 8.9563 38.1375 8.65497 37.8362L6.94114 36.1223C6.33847 35.5197 6.33847 34.5403 6.94114 33.9377C7.5438 33.335 8.52314 33.335 9.1258 33.9377L9.7473 34.5592L13.7776 30.5288C14.3803 29.9262 15.3596 29.9262 15.9623 30.5288C16.565 31.1315 16.565 32.1108 15.9623 32.7135L10.8396 37.8362C10.5383 38.1375 10.1428 38.2882 9.7473 38.2882Z" fill="#24A19C"/>
</svg>
